<svg width="161" height="60" viewBox="0 0 161 60" fill="none" xmlns="http://www.w3.org/2000/svg">
<path d="M26.6442 28.0688C31.6337 28.0688 35.6786 24.0239 35.6786 19.0344C35.6786 14.0448 31.6337 10 26.6442 10C21.6546 10 17.6098 14.0448 17.6098 19.0344C17.6098 24.0239 21.6546 28.0688 26.6442 28.0688Z" fill="#546FFF"/>
<path d="M40.331 26.1928C39.4406 29.1164 37.6475 31.6831 35.2087 33.5249C32.7699 35.3668 29.8107 36.3893 26.755 36.4459C23.6994 36.5026 20.7042 35.5904 18.1989 33.8401C15.6936 32.0899 13.8066 29.5914 12.8085 26.7028L0 31.1286C1.93272 36.722 5.58661 41.5601 10.438 44.9493C15.2893 48.3385 21.0891 50.1048 27.0061 49.9952C32.923 49.8855 38.6534 47.9055 43.3759 44.3389C48.0984 40.7723 51.5705 35.8022 53.2947 30.141L40.331 26.1928Z" fill="#546FFF"/>
<path d="M74.8147 46.48C72.9213 46.48 71.1613 46.1333 69.5347 45.44C67.9347 44.7467 66.548 43.7867 65.3747 42.56C64.228 41.3067 63.388 39.8533 62.8547 38.2L67.3747 36.24C68.0947 37.9467 69.1347 39.2933 70.4947 40.28C71.8547 41.24 73.388 41.72 75.0947 41.72C76.0547 41.72 76.8813 41.5733 77.5747 41.28C78.2947 40.96 78.8413 40.5333 79.2147 40C79.6147 39.4667 79.8147 38.8267 79.8147 38.08C79.8147 37.2 79.548 36.48 79.0147 35.92C78.508 35.3333 77.7347 34.88 76.6947 34.56L70.9747 32.72C68.6547 32 66.908 30.92 65.7347 29.48C64.5613 28.04 63.9747 26.3467 63.9747 24.4C63.9747 22.6933 64.388 21.1867 65.2147 19.88C66.068 18.5733 67.2413 17.56 68.7347 16.84C70.2547 16.0933 71.988 15.72 73.9347 15.72C75.7213 15.72 77.3613 16.04 78.8547 16.68C80.348 17.2933 81.628 18.16 82.6947 19.28C83.788 20.3733 84.6013 21.6667 85.1347 23.16L80.6547 25.16C80.068 23.6667 79.188 22.52 78.0147 21.72C76.8413 20.8933 75.4813 20.48 73.9347 20.48C73.028 20.48 72.228 20.64 71.5347 20.96C70.8413 21.2533 70.2947 21.68 69.8947 22.24C69.5213 22.7733 69.3347 23.4133 69.3347 24.16C69.3347 24.9867 69.6013 25.72 70.1347 26.36C70.668 26.9733 71.4813 27.4533 72.5747 27.8L78.0547 29.52C80.428 30.2933 82.2013 31.36 83.3747 32.72C84.5747 34.08 85.1747 35.76 85.1747 37.76C85.1747 39.4667 84.7347 40.9733 83.8547 42.28C82.9747 43.5867 81.7613 44.6133 80.2147 45.36C78.668 46.1067 76.868 46.48 74.8147 46.48ZM99.9531 46.48C97.7131 46.48 95.7531 45.9733 94.0731 44.96C92.3931 43.9467 91.0864 42.5733 90.1531 40.84C89.2198 39.1067 88.7531 37.1867 88.7531 35.08C88.7531 32.8933 89.2198 30.96 90.1531 29.28C91.1131 27.5733 92.4064 26.2267 94.0331 25.24C95.6864 24.2533 97.5264 23.76 99.5531 23.76C101.26 23.76 102.753 24.04 104.033 24.6C105.34 25.16 106.446 25.9333 107.353 26.92C108.26 27.9067 108.953 29.04 109.433 30.32C109.913 31.5733 110.153 32.9333 110.153 34.4C110.153 34.7733 110.126 35.16 110.073 35.56C110.046 35.96 109.98 36.3067 109.873 36.6H93.0731V32.6H106.913L104.433 34.48C104.673 33.2533 104.606 32.16 104.233 31.2C103.886 30.24 103.3 29.48 102.473 28.92C101.673 28.36 100.7 28.08 99.5531 28.08C98.4598 28.08 97.4864 28.36 96.6331 28.92C95.7798 29.4533 95.1264 30.2533 94.6731 31.32C94.2464 32.36 94.0864 33.6267 94.1931 35.12C94.0864 36.4533 94.2598 37.64 94.7131 38.68C95.1931 39.6933 95.8864 40.48 96.7931 41.04C97.7264 41.6 98.7931 41.88 99.9931 41.88C101.193 41.88 102.206 41.6267 103.033 41.12C103.886 40.6133 104.553 39.9333 105.033 39.08L109.273 41.16C108.846 42.2 108.18 43.12 107.273 43.92C106.366 44.72 105.286 45.3467 104.033 45.8C102.806 46.2533 101.446 46.48 99.9531 46.48ZM114.125 46V24.24H119.045V29.08L118.645 28.36C119.152 26.7333 119.939 25.6 121.005 24.96C122.099 24.32 123.405 24 124.925 24H126.205V28.64H124.325C122.832 28.64 121.632 29.1067 120.725 30.04C119.819 30.9467 119.365 32.2267 119.365 33.88V46H114.125ZM135.646 46L127.086 24.24H132.806L139.006 41.36H136.886L143.126 24.24H148.846L140.286 46H135.646ZM151.742 46V24.24H156.982V46H151.742ZM151.742 21.8V16.2H156.982V21.8H151.742Z" fill="black"/>
</svg>
